# AST/ASF file generated using VICON BodyLanguage
# -----------------------------------------------
:version 1.10
:name VICON
:units
  mass 1.0
  length 0.45
  angle deg
:documentation
   .ast/.asf automatically generated from VICON data using
   VICON BodyBuilder and BodyLanguage model FoxedUp or BRILLIANT.MOD
:root
   order TX TY TZ RX RY RZ
   axis XYZ
   position 0 0 0  
   orientation 0 0 0 
:bonedata
  begin
     id 1 
     name lhipjoint
     direction 0.537252 -0.787203 0.302774 
     length 2.29576 
     axis 0 0 0  XYZ
  end
  begin
     id 2 
     name lfemur
     direction 0.34202 -0.939693 0  
     length 7.31114  
     axis 0 0 20  XYZ
    dof rx ry rz
    limits (-160.0 20.0)
           (-70.0 70.0)
           (-60.0 70.0)
  end
  begin
     id 3 
     name ltibia
     direction 0.34202 -0.939693 0   
     length 8.36008   
     axis 0 0 20   XYZ
    dof rx
    limits (-10.0 170.0)
  end
  begin
     id 4 
     name lfoot
     direction 0.0969116 -0.266263 0.959016   
     length 2.16704   
     axis -90 7.62852e-016 20   XYZ
    dof rx rz
    limits (-45.0 90.0)
           (-70.0 20.0)
  end
  begin
     id 5 
     name ltoes
     direction 1.53563e-011 -4.21779e-011 1   
     length 1.08338   
     axis -90 7.62852e-016 20   XYZ
    dof rx
    limits (-90.0 20.0)
  end
  begin
     id 6 
     name rhipjoint
     direction -0.588228 -0.754791 0.290308   
     length 2.39434  
     axis 0 0 0  XYZ 
  end
  begin
     id 7 
     name rfemur
     direction -0.34202 -0.939693 0   
     length 7.45207   
     axis 0 0 -20   XYZ
    dof rx ry rz
    limits (-160.0 20.0)
           (-70.0 70.0)
           (-70.0 60.0)
  end
  begin
     id 8 
     name rtibia
     direction -0.34202 -0.939693 0   
     length 8.03565   
     axis 0 0 -20   XYZ
    dof rx
    limits (-10.0 170.0)
 end
 begin
     id 9 
     name rfoot
     direction -0.107009 -0.294004 0.949795   
     length 2.11509  
     axis -90 -7.62852e-016 -20   XYZ
    dof rx rz
    limits (-45.0 90.0)
           (-20.0 70.0)
  end
  begin
     id 10 
     name rtoes
     direction -1.53533e-011 -4.22004e-011 1   
     length 1.05493   
     axis -90 -7.62852e-016 -20   XYZ
    dof rx
    limits (-90.0 20.0)
  end
  begin
     id 11 
     name lowerback
     direction -0.0115208 0.997969 -0.0626515   
     length 2.03153   
     axis 0 0 0   XYZ
    dof rx ry rz
    limits (-20.0 45.0)
           (-30.0 30.0)
           (-30.0 30.0)
  end
  begin
     id 12 
     name upperback
     direction -0.00423475 0.999974 -0.00583614   
     length 2.03619   
     axis 0 0 0   XYZ
    dof rx ry rz
    limits (-20.0 45.0)
           (-30.0 30.0)
           (-30.0 30.0)
  end
  begin
     id 13 
     name thorax
     direction 0.00289429 0.999728 0.0231573   
     length 2.03921   
     axis 0 0 0   XYZ
    dof rx ry rz
    limits (-20.0 45.0)
           (-30.0 30.0)
           (-30.0 30.0)
  end
  begin
     id 14 
     name lowerneck
     direction 0.0188995 0.987777 0.154721   
     length 1.78836   
     axis 0 0 0   XYZ
    dof rx ry rz
    limits (-20.0 45.0)
           (-30.0 30.0)
           (-30.0 30.0)
  end
  begin
     id 15 
     name upperneck
     direction -0.00612612 0.992995 -0.118   
     length 1.81789   
     axis 0 0 0   XYZ
    dof rx ry rz
    limits (-20.0 45.0)
           (-30.0 30.0)
           (-30.0 30.0)
  end
  begin
     id 16
     name head
     direction -0.00420226 0.998397 -0.0564482  
     length 1.82234  
     axis 0 0 0   XYZ
    dof rx ry rz
    limits (-20.0 45.0)
           (-30.0 30.0)
           (-30.0 30.0)
  end
  begin
     id 17 
     name lclavicle
     direction 0.916488 0.396539 0.0529676  
     length 3.51732  
     axis 0 0 0   XYZ
    dof ry rz
    limits (-20.0 10.0)
           (0.0 20.0)
  end
  begin
     id 18 
     name lhumerus
     direction 1 -4.4896e-011 8.36962e-028   
     length 5.45077   
     axis 180 -30 -90   XYZ
    dof rx ry rz
    limits (-60.0 90.0)
           (-90.0 90.0)
           (-90.0 90.0)
  end
  begin
     id 19
     name lradius
     direction 1 -4.48962e-011 3.01407e-027   
     length 3.05488   
     axis 180 -30 -90   XYZ
    dof rx
    limits (-10.0 170.0)
  end
  begin
     id 20
     name lwrist
     direction 1 -4.49002e-011 4.72961e-027   
     length 1.52744   
     axis -2.72261e-015 90 90   XYZ
    dof ry
    limits (-180.0 0.0)
 end
  begin
     id 21 
     name lhand
     direction 1 -4.4899e-011 9.45681e-027   
     length 0.638818   
     axis -6.0311e-015 90 90   XYZ
    dof rx rz
    limits (-90.0 90.0)
           (-45.0 45.0)
  end
  begin
     id 22 
     name lfingers
     direction 1 -4.48871e-011 1.88632e-026   
     length 0.515032   
     axis -1.20625e-014 90 90   XYZ
    dof rx
    limits (0.0 90.0)
  end
  begin
     id 23
     name lthumb
     direction 0.707107 -6.34964e-011 0.707107   
     length 0.739485   
     axis -90 45 6.32835e-014   XYZ
    dof rx rz
    limits (-45.0 45.0)
           (-45.0 45.0)
  end
  begin
     id 24 
     name rclavicle
     direction -0.949427 0.303202 0.0815894   
     length 3.76167  
     axis 0 0 0   XYZ 
    dof ry rz
    limits (-10.0 20.0)
           (-20.0 0.0)
  end
  begin
     id 25 
     name rhumerus
     direction -1 -4.48971e-011 -6.43969e-018  
     length 4.88702   
     axis 180 30 90   XYZ
    dof rx ry rz
    limits (-90.0 60.0)
           (-90.0 90.0)
           (-90.0 90.0)
  end
  begin
     id 26 
     name rradius
     direction -1 -4.48987e-011 5.46662e-027   
     length 3.22603   
     axis 180 30 90   XYZ
    dof rx
    limits (-10.0 170.0)
  end
  begin
     id 27 
     name rwrist
     direction -1 -4.48956e-011 4.72476e-027   
     length 1.61302   
     axis -2.72261e-015 -90 -90   XYZ
    dof ry
    limits (-180.0 0.0)
  end
  begin
     id 28
     name rhand
     direction -1 -4.4889e-011 9.43571e-027   
     length 0.716293   
     axis -6.0311e-015 -90 -90   XYZ
    dof rx rz
    limits (-90.0 90.0)
           (-45.0 45.0)
  end
  begin
     id 29
     name rfingers
     direction -1 -4.48887e-011 1.88701e-026   
     length 0.577494   
     axis -1.20625e-014 -90 -90   XYZ
    dof rx
    limits (0.0 90.0)
  end
  begin
     id 30
     name rthumb
     direction -0.707107 -6.34825e-011 0.707107   
     length 0.829169   
     axis -90 -45 -6.32835e-014   XYZ
    dof rx rz
    limits (-45.0 45.0)
           (-45.0 45.0)
  end
:hierarchy
  begin
    root lhipjoint rhipjoint lowerback
    lhipjoint lfemur
    lfemur ltibia
    ltibia lfoot
    lfoot ltoes
    rhipjoint rfemur
    rfemur rtibia
    rtibia rfoot
    rfoot rtoes
    lowerback upperback
    upperback thorax
    thorax lowerneck lclavicle rclavicle
    lowerneck upperneck
    upperneck head
    lclavicle lhumerus
    lhumerus lradius
    lradius lwrist
    lwrist lhand lthumb
    lhand lfingers
    rclavicle rhumerus
    rhumerus rradius
    rradius rwrist
    rwrist rhand rthumb
    rhand rfingers
  end

#!OML:ASF F:\VICON\USERDATA\INSTALL\rory3\rory3.ASF
:FULLY-SPECIFIED
:DEGREES
1
root 1.76501 18.4626 0.618207 105.588 86.7705 94.9296
lowerback -10.8769 -2.46661 -3.33449
upperback -3.99443 -2.78889 0.187154
thorax 2.09528 -1.31174 1.71938
lowerneck -16.0813 0.36907 1.90081
upperneck 19.2261 0.472864 -1.51447
head 8.66372 0.248083 -0.763
rclavicle 2.24254e-015 9.93923e-016
rhumerus -32.4386 6.09238 -91.6041
rradius 27.7595
rwrist 6.82153
rhand -14.5377 8.25521
rfingers 7.12502
rthumb 11.6106 -21.4031
lclavicle 2.24254e-015 9.93923e-016
lhumerus -34.7221 -11.7904 91.2255
lradius 33.0106
lwrist 10.1772
lhand -7.70595 26.6664
lfingers 7.12502
lthumb 18.1918 55.8358
rfemur -10.0751 -4.9623 15.087
rtibia 13.0172
rfoot -14.1573 -2.51247
rtoes -13.9883
lfemur -9.49345 7.68618 -19.4814
ltibia 12.7024
lfoot -13.1176 -0.836162
ltoes -27.2488
2
root 1.76661 18.4633 0.616224 105.514 86.7953 94.8427
lowerback -10.8544 -2.46323 -3.31889
upperback -4.03312 -2.78692 0.210421
thorax 2.04311 -1.30901 1.73674
lowerneck -15.9937 0.416585 1.9552
upperneck 19.2772 0.550186 -1.60668
head 8.66704 0.280232 -0.7939
rclavicle 2.39784e-014 6.36111e-015
rhumerus -32.4781 6.02591 -91.5176
rradius 27.7452
rwrist 6.8345
rhand -14.6049 8.32399
rfingers 7.12502
rthumb 11.5458 -21.338
lclavicle 2.39784e-014 6.36111e-015
lhumerus -34.8035 -11.632 91.2143
lradius 33.0468
lwrist 10.228
lhand -7.7423 26.5759
lfingers 7.12502
lthumb 18.1568 55.7485
rfemur -10.0844 -4.84696 15.1011
rtibia 13.0308
rfoot -14.1834 -2.58232
rtoes -13.936
lfemur -9.49278 7.68426 -19.4716
ltibia 12.6768
lfoot -13.0954 -0.777478
ltoes -27.4412
3
root 1.76831 18.4635 0.614074 105.675 86.7609 94.9756
lowerback -10.8862 -2.47766 -3.34659
upperback -4.0449 -2.80113 0.207565
thorax 2.05009 -1.3155 1.74654
lowerneck -15.9408 0.467386 1.9963
upperneck 19.2862 0.628504 -1.67933
head 8.66242 0.313097 -0.815822
rclavicle -2.09718e-014 1.59028e-015
rhumerus -32.4404 5.88276 -91.4291
rradius 27.6774
rwrist 6.86513
rhand -14.5839 8.4095
rfingers 7.12502
rthumb 11.5661 -21.2514
lclavicle -2.09718e-014 1.59028e-015
lhumerus -34.8095 -11.4605 91.152
lradius 33.0811
lwrist 10.3463
lhand -7.71609 26.5615
lfingers 7.12502
lthumb 18.182 55.7317
rfemur -10.0914 -4.80611 15.0546
rtibia 13.0233
rfoot -14.1454 -2.62841
rtoes -13.9227
lfemur -9.55315 7.68753 -19.5268
ltibia 12.7063
lfoot -13.0472 -0.783647
ltoes -27.4014
4
root 1.76993 18.4639 0.613274 105.795 86.816 95.1084
lowerback -10.89 -2.46899 -3.27955
upperback -4.03273 -2.79696 0.212477
thorax 2.06181 -1.31431 1.71419
lowerneck -15.9919 0.505696 1.98507
upperneck 19.3904 0.683245 -1.66416
head 8.70821 0.340389 -0.80249
rclavicle 8.49804e-015 -2.18663e-015
rhumerus -32.4009 5.679 -91.3481
rradius 27.6373
rwrist 6.99407
rhand -14.6314 8.41237
rfingers 7.12502
rthumb 11.5203 -21.251
lclavicle 8.49804e-015 -2.18663e-015
lhumerus -34.7852 -11.2864 91.0726
lradius 33.0819
lwrist 10.4511
lhand -7.69516 26.519
lfingers 7.12502
lthumb 18.2021 55.6874
rfemur -10.0634 -4.79006 15.1132
rtibia 12.9985
rfoot -14.1536 -2.64812
rtoes -14.1949
lfemur -9.57423 7.68016 -19.4622
ltibia 12.754
lfoot -13.0301 -0.75585
ltoes -27.2708
5
root 1.77136 18.4643 0.612659 106.273 86.8818 95.6268
lowerback -10.8618 -2.47999 -3.23317
upperback -4.01616 -2.81955 0.250219
thorax 2.06468 -1.32643 1.72504
lowerneck -16.0613 0.543279 1.94384
upperneck 19.5412 0.744753 -1.64401
head 8.77329 0.369488 -0.781693
rclavicle -2.13818e-014 7.55382e-015
rhumerus -32.3971 5.74736 -91.3146
rradius 27.6668
rwrist 6.87337
rhand -14.5369 8.43137
rfingers 7.12502
rthumb 11.6113 -21.2269
lclavicle -2.13818e-014 7.55382e-015
lhumerus -34.7938 -11.046 90.9931
lradius 33.1197
lwrist 10.4117
lhand -7.60932 26.5231
lfingers 7.12502
lthumb 18.2847 55.6837
rfemur -10.0017 -4.70745 15.1856
rtibia 12.9868
rfoot -14.2333 -2.74818
rtoes -14.1938
lfemur -9.54424 7.73494 -19.3806
ltibia 12.7944
lfoot -13.0705 -0.784691
ltoes -27.4971
